<svg width="182" height="171" viewBox="0 0 182 171" fill="none" xmlns="http://www.w3.org/2000/svg">
<mask id="mask0" mask-type="alpha" maskUnits="userSpaceOnUse" x="0" y="0" width="182" height="171">
<rect width="182" height="171" fill="white"/>
</mask>
<g mask="url(#mask0)">
<path d="M167.522 148.27C170.292 141.036 174.268 134.239 178.027 127.491C184.063 116.654 190.997 107.722 201.944 101.799C219.741 92.1692 238.961 88.9619 258.781 90.0576C269.112 90.6283 279.668 92.2012 289.372 95.8825C293.691 97.5216 297.897 99.4478 302.05 101.466C304.617 102.713 307.141 104.043 309.653 105.398C311.164 106.215 313.872 107.047 314.836 108.559C315.106 108.984 315.262 109.472 315.288 109.975C315.314 110.478 315.209 110.979 314.983 111.43C314.757 111.88 314.418 112.264 314 112.545C313.581 112.825 313.097 112.992 312.594 113.029C310.724 113.082 308.478 111.211 306.842 110.37C303.08 108.433 299.228 106.7 295.332 105.056C289.335 102.474 283.076 100.551 276.664 99.3214C263.372 96.9413 249.791 96.6476 236.409 98.4509C241.106 109.612 239.599 120.763 233.625 131.17C225.119 145.985 214.472 157.175 199.108 164.597C189.131 169.418 178.878 169.612 168.304 167.244C166.31 166.793 163.585 165.885 162.961 163.591C162.361 161.383 163.971 158.433 164.646 156.357C165.53 153.632 166.496 150.945 167.522 148.27Z" fill="#DDE3E9"/>
<path d="M264.961 10.0555C247.057 4.96142 229.199 0.0340826 210.777 -2.91378C199.921 -4.6496 188.979 -5.61076 178.064 -6.8977C179.39 -6.63412 180.71 -6.33863 182.024 -6.01125C178.708 -6.25363 175.064 -5.36502 171.674 -5.40509C167.894 -5.44908 164.099 -5.80465 160.347 -6.20597C153.024 -6.98792 145.735 -7.8877 138.382 -8.38945C130.189 -8.94916 121.954 -9.08214 113.746 -9.43382C106.781 -9.73233 99.5754 -10.302 92.597 -9.80034C88.7919 -9.52761 84.8265 -9.51973 80.9715 -9.30084C79.6817 -9.22772 65.8572 -9.77808 65.8717 -9.81215C66.1888 -10.5591 72.6689 -11.1082 73.6438 -11.241C76.4897 -11.6307 79.3423 -11.7773 82.2 -11.9359C79.5784 -13.6099 77.1996 -15.6366 75.1306 -17.959C74.4967 -18.6857 69.7614 -23.9081 70.1358 -24.7927C70.3235 -25.2348 79.7088 -16.4197 80.4657 -15.4886C81.0712 -14.5719 81.7447 -13.7021 82.4806 -12.8864C83.6556 -11.8647 83.4114 -12.2369 84.7945 -12.0791C87.3294 -11.7899 90.1611 -12.3302 92.7181 -12.3414C94.0887 -12.3617 98.6253 -11.9174 100.934 -12.3807C108.423 -12.9177 116.875 -11.9675 124.528 -11.5459C121.501 -13.4488 118.7 -15.6893 116.178 -18.2245C115.574 -18.828 109.803 -24.0398 110.089 -24.7121C110.41 -25.4682 120.008 -17.9639 120.777 -17.1725C122.202 -15.6979 123.399 -13.8374 124.909 -12.4766C126.567 -10.9837 128.806 -11.4136 131.112 -11.3141C139.577 -10.953 147.972 -10.2229 156.378 -9.24242C156.206 -24.3974 140.851 -33.9312 129.087 -39.9225C120.608 -44.2394 111.142 -46.6714 101.77 -48.1499C89.2672 -50.1262 76.3331 -50.0007 63.6797 -49.4126C48.9358 -48.6488 34.4381 -45.3187 20.8387 -39.5721C13.6748 -36.4572 6.79278 -32.7305 0.269096 -28.4333C-2.95129 -26.4622 -5.86744 -24.0327 -8.38755 -21.2211C-9.52323 -19.9038 -10.5628 -18.5066 -11.4983 -17.0404C-12.2157 -15.9319 -14.3593 -13.9603 -14.4975 -12.8461C-15.6947 -3.77358 -14.553 3.91461 -9.62933 11.5942C-4.96928 18.863 1.69395 24.98 8.72915 29.7983C16.4481 35.2268 25.1075 39.1758 34.2674 41.4446C41.3694 42.9752 48.5608 44.0569 55.7988 44.6831C81.4341 47.4236 110.913 45.65 132.586 29.1796C139.518 23.7483 145.393 17.0904 149.919 9.53712C151.015 7.77065 152.093 6.00344 153.013 4.1318C153.632 2.8729 154.574 -1.73403 155.524 -2.43162C156.827 -3.38831 161.454 -2.28604 163.256 -2.17763C176.945 -1.35433 190.579 -0.0259554 204.173 1.70038C218.635 3.53675 232.904 6.18005 247.115 9.36852C253.158 10.7256 259.183 12.1004 265.18 13.6499C266.576 14.0087 270.615 15.9702 272.317 15.1806C272.555 15.0717 272.765 14.9086 272.929 14.7043C273.094 14.5 273.208 14.2602 273.263 14.0039C273.318 13.7477 273.313 13.482 273.248 13.2282C273.182 12.9743 273.058 12.7393 272.886 12.5417C271.682 11.0381 266.797 10.5733 264.966 10.0489" fill="#C1DEE2"/>
<path d="M181.28 91.402C177.459 93.6183 173.456 95.5046 169.314 97.0404C165.096 98.5932 160.739 99.7408 156.304 100.468C151.791 101.205 145.938 101.949 140.685 101.151C138.14 100.824 135.693 99.9633 133.505 98.6239C131.291 97.1974 129.577 95.1152 128.603 92.6678C128.503 92.7783 128.386 92.8724 128.256 92.9467C127.985 93.1175 127.666 93.1971 127.346 93.1741C127.026 93.1511 126.722 93.0265 126.478 92.8187C126.277 92.5494 126.376 92.1998 126.758 91.8359C127.694 90.9491 127.689 90.8473 127.669 89.8647L127.663 89.5702C127.636 88.9472 127.566 88.3269 127.452 87.7137C127.383 87.2793 127.311 86.8311 127.272 86.402C127.059 84.2198 127.056 82.0221 127.265 79.8394C127.772 75.1627 129.006 70.5938 130.921 66.2972C134.879 57.2892 139.194 50.4515 144.116 45.3897C149.374 40.0504 155.344 35.4623 161.857 31.7551C166.815 28.8853 172.037 26.5012 177.453 24.6364C181.069 23.3172 184.84 22.4726 188.672 22.1234C192.507 21.7956 196.367 22.3224 199.974 23.6658C203.84 25.0375 207.322 27.3136 210.13 30.3043C210.457 30.6801 210.762 31.0746 211.043 31.486C211.378 31.9856 211.756 32.4554 212.172 32.89L212.315 33.0302C213.108 33.8042 213.108 33.8042 213.878 33.4659C214.095 33.3709 214.364 33.2526 214.727 33.1166C216.615 32.4101 218.556 31.6901 220.494 30.9774C225.515 29.0499 230.637 27.3959 235.836 26.0226C237.549 25.6011 239.286 25.2861 241.038 25.0796C241.244 25.0551 241.549 25.0086 241.902 24.9547C243.9 24.6488 247.618 24.0793 248.726 24.9962C248.922 25.1152 249.088 25.2784 249.211 25.4729C249.333 25.6673 249.408 25.8875 249.43 26.1161C249.401 26.272 249.334 26.4184 249.235 26.5422C249.136 26.6661 249.008 26.7636 248.862 26.8263C248.049 27.2099 247.162 27.4145 246.263 27.4263C245.24 27.4398 244.195 27.4908 243.163 27.5832C240.573 27.8274 238.009 28.2965 235.499 28.985C232.809 29.7056 230.123 30.6226 227.526 31.5101L227.439 31.5395C225.21 32.301 222.853 33.1476 220.018 34.1937C218.623 34.7111 217.197 35.2447 215.94 35.7198L215.917 35.7333C215.793 35.7759 215.667 35.8123 215.54 35.8424C215.337 35.8847 215.139 35.9518 214.952 36.0421C214.912 36.0605 214.875 36.0873 214.846 36.1209C214.816 36.1544 214.794 36.1938 214.781 36.2364C214.776 36.2827 214.78 36.3297 214.794 36.3742C214.808 36.4187 214.831 36.4597 214.862 36.4946C212.719 37.3059 210.643 38.2854 208.654 39.424C207.911 39.823 207.147 40.234 206.399 40.6104C203.519 42.0794 201.115 43.3371 198.744 44.7056C197.944 45.1676 197.17 45.6307 196.442 46.0812C194.105 47.5112 191.843 49.0613 189.666 50.7253C188.4 51.7075 187.193 52.7628 186.05 53.8858C185.91 54.0233 185.663 54.2361 185.378 54.4839C184.383 55.3456 182.72 56.7886 182.695 57.4751C182.699 57.3575 183.02 57.1187 183.645 56.7582C184.152 56.4652 184.787 56.1359 185.287 55.8791L185.684 55.6765C186.045 55.4922 186.329 55.3471 186.459 55.2721L186.495 55.2511C188.134 54.2204 189.712 53.0823 191.171 52.0063C193.821 50.0453 196.578 48.2331 199.429 46.578L200.011 46.242C200.228 46.6375 199.48 47.8814 198.934 48.79C198.732 49.126 198.558 49.4147 198.474 49.5927C197.79 51.0489 197.209 52.5519 196.738 54.0902C195.767 56.9192 195.142 59.8552 194.877 62.8343C195.105 61.9981 195.488 61.2121 196.006 60.517C196.269 60.0926 196.518 59.6928 196.648 59.4131C197.298 58.0184 197.853 56.6643 198.299 55.3884C198.77 54.0417 199.125 52.6852 199.411 51.5364C199.516 51.117 199.596 50.5858 199.681 50.0229C199.774 48.8723 200.073 47.7479 200.566 46.7038C200.569 46.7007 200.573 46.6984 200.577 46.6973C200.644 46.6781 200.714 46.6694 200.784 46.6714L200.906 46.664C201.065 46.6607 201.221 46.6241 201.364 46.5568C201.408 46.5329 201.446 46.4995 201.475 46.4592C201.593 46.1826 201.652 45.8849 201.65 45.5845C201.65 45.4891 201.662 45.3942 201.687 45.3022C201.948 45.005 202.261 44.7578 202.611 44.5725C203.217 44.2453 203.843 43.9575 204.485 43.7109C204.926 43.5304 205.342 43.3607 205.66 43.1969C207.676 42.148 209.74 41.1124 211.729 40.1095L211.798 40.0695L213.956 38.98C214.062 38.9256 214.174 38.8642 214.306 38.7877L214.499 38.6767L214.693 38.5647C215.172 38.2877 215.608 38.0824 216.077 38.3858C216.655 38.761 217.018 40.2038 217.257 41.159C217.315 41.388 217.364 41.5858 217.41 41.7407C218.327 44.7088 218.494 47.8582 217.896 50.9067C216.716 56.5478 214.105 61.7908 210.315 66.132C206.146 71.1321 201.614 75.8175 196.755 80.1499C191.984 84.4062 186.8 88.1755 181.28 91.402V91.402ZM179.234 47.8708C179.155 47.9163 179.115 47.9626 179.113 48.0075C179.113 48.0339 179.119 48.0599 179.13 48.0839C179.141 48.1079 179.157 48.1293 179.176 48.1466C179.762 48.7208 184.277 48.4812 187.574 48.3061C188.673 48.2073 189.777 48.1772 190.88 48.2161C188.675 47.4774 186.361 47.1209 184.036 47.1619C183.49 47.1839 179.937 47.4648 179.234 47.8708ZM201.224 29.0907C201.238 29.1288 201.95 29.5471 202.706 29.9883L202.709 29.9935C203.315 30.3487 203.944 30.7169 204.244 30.9085C205.568 31.751 206.938 32.6903 208.43 33.7777C206.283 31.8533 203.852 30.2728 201.222 29.0922L201.224 29.0907Z" fill="#89C5CC"/>
</g>
</svg>
