<svg width="465" height="405" viewBox="0 0 465 405" fill="none" xmlns="http://www.w3.org/2000/svg">
<g clip-path="url(#clip0)">
<g opacity="0.7">
<path opacity="0.7" d="M351.445 147.805C345.994 160.344 331.522 172.022 317.907 166.89C308.014 163.164 298.764 158.208 288.628 155.008C280.52 152.519 272.066 151.282 263.547 151.338C255.344 151.328 246.388 155.299 238.481 153.565C233.442 152.46 227.446 148.704 223.826 144.985C219.426 140.462 219.352 141.669 213.022 143.19C200.618 146.169 188.353 148.308 175.563 147.778C157.145 147.017 137.327 142.678 122.055 131.991C120.114 130.636 112.778 126.524 113.721 123.302C114.775 119.704 118.31 123.385 119.613 124.251C127.923 129.776 135.18 134.623 144.861 137.735C182.216 149.74 217.801 135.533 255.558 133.513C257.534 133.352 262.114 133.216 265.171 133.059C269.995 132.811 278.233 134.238 282.455 132.754C290.408 129.961 277.347 129.676 274.801 129.726C271.582 129.789 268.135 129.906 265.216 130.159C251.725 131.25 236.922 132.595 223.009 133.732C230.654 102.757 273.114 99.3266 298.332 102.509C319.11 105.131 364.194 118.3 351.445 147.805Z" fill="#69A1AC"/>
<path opacity="0.7" d="M302.941 328.054C311.511 306.829 304.878 287.175 289.518 271.931C281.241 263.716 271.246 258.278 261.967 251.392C248.008 241.028 239.335 229.338 234.164 212.342C232.773 207.523 230.559 203.005 227.623 198.99C225.784 193.23 222.943 187.869 219.232 183.158C214.195 176.86 206.757 172.092 198.478 172.364C196.253 172.436 191.555 173.044 188.739 174.693C174.283 156.104 155.971 140.737 134.905 130.98C122.188 125.092 109.325 119.486 96.4315 113.994C92.9691 112.52 86.8545 110.884 91.6588 115.375C96.0532 119.483 105.117 121.57 110.598 124.069C137.299 136.243 161.552 147.359 180.587 170.638C182.581 173.079 184.523 175.573 186.413 178.12C186.421 178.216 186.433 178.312 186.45 178.407C186.389 178.438 186.329 178.459 186.267 178.494C186.368 178.647 186.483 178.843 186.608 179.068C186.827 179.661 187.118 180.223 187.474 180.74C188.314 182.386 189.323 184.273 190.175 184.703C190.182 184.707 190.192 184.712 190.199 184.715C197.576 197.103 204.276 209.903 210.27 223.058C210.227 222.961 217.515 237.518 211.749 232.962C208.97 230.767 206.264 221.378 204.272 217.14C199.287 206.57 193.773 196.275 187.749 186.293C187.701 185.326 186.149 183.222 184.981 181.681C184.408 180.863 183.814 180.071 183.316 179.336C166.993 196.08 172.227 218.011 182.02 236.056C182.031 236.077 182.044 236.098 182.055 236.118C184.614 241.401 187.105 246.747 188.346 252.497C190.417 262.091 187.731 269.928 186.407 279.368C182.794 305.113 206.042 328.367 225.271 341.636C246.966 356.605 290.971 357.938 302.941 328.054Z" fill="#89C5CC"/>
<path opacity="0.7" d="M388.426 320.174C377.557 288.622 353.063 263.823 329.292 242.009C302.74 217.647 274.198 196.091 242.076 179.858C220.972 169.191 199.955 158.015 178.171 148.777C170.434 145.467 162.53 142.556 154.489 140.057C153.829 139.854 135.878 134.344 138.445 138.882C139.906 141.462 157.05 144.631 159.712 145.549C174.636 150.874 189.179 157.199 203.246 164.482C226.532 176.23 250.124 187.066 272.191 201.052C275.601 203.063 278.868 205.308 281.971 207.773C285.138 210.467 284.13 208.539 284.106 212.177C284.083 215.712 282.139 219.129 282.418 222.947C283.525 238.094 298.332 252.909 307.682 263.369C318.375 275.326 330.992 285.633 343.746 295.194C353.06 302.199 362.745 308.686 372.76 314.629C376.053 316.383 379.232 318.345 382.278 320.503C383.062 321.116 384.161 322.78 384.951 323.132C386.622 323.876 388.088 323.341 389.505 323.94C389.171 322.679 388.81 321.426 388.422 320.181" fill="#89C5CC"/>
<path opacity="0.7" d="M161.607 64.9138C144.7 56.5169 125.065 55.3523 107.021 61.676C88.9763 67.9997 74.0009 81.2938 65.3888 98.6337C56.7767 115.974 55.2333 135.939 61.0983 154.138C66.9633 172.336 79.7562 187.277 96.6626 195.674" fill="#89C5CC"/>
<path opacity="0.7" d="M70.6463 188.875C71.8113 186.331 73.8624 184.303 76.3965 183.189C78.8378 182.256 81.4624 181.974 84.016 182.371C89.5734 183.036 95.4547 185.759 99.3468 187.56C109.479 192.251 120.423 196.373 133.001 190.919C134.482 190.277 135.954 189.538 137.378 188.824C138.648 188.187 139.961 187.529 141.274 186.941L141.901 186.659C146.109 184.762 150.459 182.799 154.948 184.524C157.441 185.481 158.997 186.744 159.571 188.278C159.804 189.043 159.871 189.854 159.769 190.654C159.666 191.455 159.396 192.228 158.976 192.92C158.393 194.043 157.699 195.104 156.903 196.085C156.776 196.246 156.366 196.631 155.796 197.169C154.169 198.705 151.45 201.263 150.617 202.941C150.361 203.456 150.307 203.851 150.454 204.114C150.563 204.255 150.706 204.366 150.869 204.438C151.032 204.509 151.21 204.539 151.389 204.523C152.486 204.586 153.945 203.656 155.724 201.758C158.43 197.505 160.964 193.478 162.217 190.954C162.503 190.414 162.737 189.848 162.915 189.265C165.28 180.011 162.547 170.114 154.792 159.851C147.144 149.729 136.793 142.172 131.303 138.568C129.816 137.592 128.188 136.569 126.326 135.439L128.041 131.984C132.177 134.27 136.18 136.79 140.03 139.535C145.198 143.324 154.865 151.231 161.539 161.607C164.414 165.906 166.499 170.709 167.695 175.787C168.833 180.755 168.578 185.975 166.958 190.861C166.687 191.554 166.38 192.233 166.038 192.893C165.392 194.193 164.565 195.735 163.712 197.233C163.787 199.141 163.439 201.05 162.693 202.82C162.404 203.528 162.08 204.242 161.733 204.941C159.69 208.941 156.999 212.573 153.775 215.681C150.404 218.964 146.651 221.814 142.604 224.167C138.549 226.552 134.26 228.488 129.812 229.943C125.648 231.333 121.344 232.209 116.993 232.553C110.542 233.015 103.812 231.556 96.9891 228.215C90.7863 225.099 85.1422 220.972 80.2763 215.995C76.6468 212.43 73.6257 208.276 71.3319 203.697C68.7738 198.21 68.5161 193.278 70.5636 189.037L70.6463 188.875Z" fill="#69A1AC"/>
</g>
</g>
<defs>
<clipPath id="clip0">
<rect width="257.129" height="390.599" fill="white" transform="translate(464.205 173.747) rotate(116.412)"/>
</clipPath>
</defs>
</svg>
