<svg width="136" height="189" viewBox="0 0 136 189" fill="none" xmlns="http://www.w3.org/2000/svg">
<path d="M47.3837 0.199065C50.2681 -0.249829 53.2198 0.063542 55.9457 1.10806C61.5927 3.52506 63.2007 10.2571 63.1237 15.7251C63.0397 21.6131 61.8007 28.0441 66.2387 32.7881C68.2787 34.9691 70.8177 36.6381 72.8207 38.8591C74.9399 41.2288 76.6512 43.9339 77.8847 46.8641C80.1697 52.2251 81.2927 58.5251 79.2017 64.1421C77.3627 69.0891 72.7367 73.5551 73.7367 79.1801C74.7797 85.0491 80.6467 89.5351 84.3147 93.9061C88.4657 98.8531 92.2877 105.175 92.9147 111.662C93.5147 117.879 90.8337 124.162 86.7147 128.862C78.4867 138.252 66.1147 142.856 53.6467 142.827C48.3517 142.815 42.3567 142.573 37.7877 139.704C36.5249 138.89 35.492 137.766 34.7877 136.439C34.0215 135.284 33.0363 134.29 31.8877 133.514C29.4077 131.582 27.4996 129.013 26.3677 126.08C21.8427 114.78 25.4597 100.808 31.7937 90.7801C33.2937 88.4031 34.5237 86.1161 33.7937 83.2801C33.0327 80.3231 31.1627 77.6561 29.5087 75.1141C27.7438 72.6844 26.1474 70.1368 24.7307 67.4891C23.4613 64.6921 22.9535 61.6094 23.2587 58.5531C23.8485 52.7229 26.1028 47.1855 29.7527 42.6011C33.1677 38.0701 37.1767 33.7341 37.1857 27.8011C37.1927 21.5031 33.0237 15.9061 34.8007 9.50806C35.4693 6.72105 37.0979 4.25842 39.4007 2.55206C41.6807 1.02506 44.6927 0.530065 47.3837 0.199065Z" fill="#DDE3E9"/>
<path d="M45.5166 10.2591C45.5514 10.0587 45.6284 9.86795 45.7423 9.69947C45.8563 9.53099 46.0047 9.38861 46.1777 9.28172C46.3508 9.17483 46.5445 9.10586 46.7462 9.07938C46.9479 9.0529 47.1528 9.0695 47.3476 9.12809C48.3776 9.41809 48.3576 10.3891 48.3306 11.2541C48.2816 13.8918 48.5952 16.5237 49.2626 19.0761C50.5796 24.4381 53.0136 29.3761 54.9416 34.5301C56.8696 39.6841 57.7726 44.9901 56.6416 50.4361C55.5766 55.5711 53.9026 60.5721 52.8116 65.7131C51.8506 70.2441 50.8276 75.0231 52.2916 79.5431C53.6996 83.8941 56.8136 87.4371 59.0556 91.3681C63.5293 99.4765 65.9269 108.566 66.0346 117.826C66.2693 122.15 65.9399 126.487 65.0546 130.726C64.4836 133.163 63.7156 136.456 61.6446 138.138C60.6896 138.914 59.0566 139.182 58.2536 138.038C57.4996 136.96 58.1606 135.292 58.4006 134.144C59.3751 129.174 59.7111 124.099 59.4006 119.044C59.2682 114.148 58.4815 109.291 57.0616 104.603C55.5901 100.332 53.5353 96.2846 50.9556 92.5761C48.3746 88.7171 45.6926 84.8451 44.6256 80.2671C43.5426 75.6181 44.4256 70.8871 45.5996 66.3261C46.8446 61.5021 48.4746 56.8171 50.1596 52.1261C51.8637 47.7749 52.3202 43.0345 51.4776 38.4381C49.6866 28.9821 44.8926 20.1061 45.5166 10.2591Z" fill="#C5CFD6"/>
<path d="M122.892 12.4131C126.517 13.3874 129.824 15.294 132.484 17.9431C137.857 23.7281 136.208 32.4701 133.242 38.8561C130.05 45.7321 125.212 52.6321 127.94 60.5221C129.194 64.1471 131.302 67.4311 132.491 71.0841C133.738 74.9735 134.329 79.0435 134.24 83.1271C134.111 90.6091 132.118 98.5931 126.709 104.106C121.946 108.959 114.158 111.794 112.377 118.923C110.519 126.36 115.061 134.688 117.077 141.734C119.36 149.708 120.532 159.127 117.861 167.074C115.302 174.691 108.841 180.674 101.527 184.053C86.9137 190.796 69.9467 189.759 55.2947 183.226C49.0737 180.452 42.1497 177.045 38.2837 171.293C37.2273 169.678 36.6043 167.819 36.4747 165.893C36.1798 164.138 35.5427 162.459 34.5997 160.95C32.6998 157.387 31.8077 153.373 32.0197 149.34C32.6347 133.712 44.2337 119.18 56.9557 110.697C59.9707 108.687 62.6177 106.641 63.2487 102.933C63.9077 99.0631 63.1097 94.9551 62.5007 91.1071C61.9007 87.3071 60.9637 83.5161 60.8887 79.6601C60.8634 75.7078 61.8843 71.8192 63.8477 68.3891C67.4477 61.7491 73.2267 56.7131 79.8687 53.0341C86.2687 49.4901 93.2607 46.4861 96.3917 39.5161C99.7117 32.1321 97.7467 23.3791 103.2 16.7901C105.458 14.0611 108.625 11.6391 112.262 11.0141C115.749 10.4151 119.558 11.4011 122.892 12.4131Z" fill="#DDE3E9"/>
<path d="M115.651 24.6281C115.795 24.4107 115.985 24.2266 116.206 24.088C116.428 23.9495 116.676 23.8598 116.935 23.8248C117.194 23.7897 117.457 23.8103 117.708 23.885C117.958 23.9597 118.189 24.0869 118.387 24.2581C119.444 25.1401 118.915 26.2721 118.433 27.2751C117.001 30.3531 115.999 33.6128 115.453 36.9631C114.205 43.9631 114.485 51.0511 114.064 58.1231C113.643 65.1951 111.936 71.9141 107.775 77.7231C103.852 83.2041 99.2847 88.2081 95.3287 93.6831C91.8417 98.5091 88.1547 103.593 87.5167 109.677C86.9027 115.534 88.7077 121.336 89.2897 127.138C90.4897 139.148 88.2057 150.85 83.6897 161.924C81.7144 167.132 79.0699 172.06 75.8227 176.585C73.8837 179.151 71.2687 182.622 67.9647 183.514C66.4407 183.925 64.3867 183.383 64.0427 181.614C63.7197 179.95 65.3637 178.336 66.2427 177.114C69.9747 171.775 73.0106 165.982 75.2767 159.875C77.6722 154.043 79.279 147.917 80.0547 141.66C80.5526 135.867 80.2515 130.032 79.1597 124.321C78.1457 118.421 77.0167 112.459 78.1507 106.514C79.3017 100.476 82.7977 95.3731 86.5507 90.6271C90.5217 85.6061 94.8737 80.9511 99.2937 76.3151C103.561 72.0856 106.564 66.7502 107.967 60.9081C110.79 48.8411 109.791 35.8831 115.651 24.6281Z" fill="#C5CFD6"/>
<path d="M13.4347 54.8321C19.3867 54.8321 24.6187 57.9561 28.2237 62.3901C32.4437 67.5801 33.2967 73.9181 35.0107 80.1041C35.7494 83.2867 37.4577 86.1615 39.8997 88.3321C42.2377 90.2321 45.2057 90.6151 47.9997 91.5441C50.7586 92.4569 53.2688 93.9961 55.3333 96.0413C57.3979 98.0864 58.9608 100.582 59.8997 103.332C62.0757 109.991 59.7707 116.706 60.1677 123.454C60.5317 129.654 66.7017 133.518 71.6677 136.489C76.5627 139.419 80.9677 142.161 82.4457 147.868C84.0087 153.921 84.5337 160.677 82.3687 166.656C78.7637 176.612 68.2127 180.996 58.0187 181.676C48.7667 182.293 37.1337 181.324 30.1857 174.676C26.0277 170.696 24.5227 165.129 24.7097 159.591C24.8882 156.143 25.4586 152.726 26.4097 149.407C27.1768 147.076 27.7543 144.686 28.1367 142.262C28.7827 135.778 22.7307 134.532 17.5797 132.752C11.3483 130.631 6.20224 126.143 3.25468 120.257C0.287684 114.713 -0.957316 108.49 0.821684 102.386C1.74362 99.2651 3.38454 96.4039 5.61268 94.0321C6.59668 92.9731 7.98268 92.0901 8.87068 90.9781C9.20355 90.4462 9.40944 89.8447 9.47239 89.2204C9.53534 88.5961 9.45366 87.9657 9.23368 87.3781C7.91268 81.7631 3.79968 77.1101 2.32668 71.5001C0.999683 66.4371 1.78368 60.1321 6.45768 56.8701C8.52473 55.5029 10.9567 54.7925 13.4347 54.8321V54.8321Z" fill="#C5CFD6"/>
<path d="M21.5447 69.4731C27.8527 76.1321 29.5677 85.1571 30.0747 93.9081C30.3567 98.8151 30.0627 103.991 31.5187 108.751C32.7647 112.825 35.6847 115.939 38.6937 118.882C44.7487 124.807 51.5057 130.832 53.2747 139.406C54.3147 144.438 53.6127 149.636 55.0497 154.613C56.4301 159.213 58.5953 163.539 61.4497 167.401C63.7027 170.477 66.6377 172.832 69.0997 175.701C69.8507 176.576 70.9267 177.865 70.6167 179.101C70.2537 180.548 68.3927 181.006 67.0717 180.779C63.9927 180.249 61.4007 177.337 59.3877 175.221C56.4577 172.179 53.9429 168.763 51.9087 165.062C49.569 160.962 47.9295 156.501 47.0577 151.862C46.2517 147.035 46.6577 142.004 44.8127 137.371C41.7127 129.571 34.2057 124.971 28.7757 118.9C22.0197 111.326 23.0287 101.904 23.7217 92.5911C24.1027 87.4731 24.4807 81.6911 21.8697 77.0211C20.8747 75.2381 18.6507 73.5751 18.2217 71.5471C17.8297 69.6901 19.9747 67.8131 21.5447 69.4731Z" fill="#AFB9C5"/>
</svg>
