<svg width="247" height="184" viewBox="0 0 247 184" fill="none" xmlns="http://www.w3.org/2000/svg">
<path d="M102.283 0.726551C105.958 0.0891309 109.694 -0.129932 113.419 0.0735514C123.147 0.2855 132.721 2.54361 141.518 6.70089C150.316 10.8582 158.139 16.8214 164.479 24.2026C175.078 36.6996 177.992 52.2396 180.086 67.9396C180.294 69.4986 180.386 71.0485 180.5 72.6105C180.525 72.9455 180.563 73.2446 180.6 73.5266C181.423 74.2596 181.855 75.1146 181.368 76.0536C183.176 80.0154 184.734 84.0867 186.033 88.2436C189.911 100.555 193.854 113.097 191.425 126.04C190.792 118.845 189.728 111.695 188.237 104.629C188.155 104.229 188.066 103.829 187.974 103.429C187.965 103.387 187.956 103.345 187.946 103.303C187.44 101.167 186.785 99.0705 185.985 97.0275C185.977 97.0055 185.969 96.9835 185.96 96.9615C185.855 96.6915 185.743 96.4235 185.632 96.1555C185.403 95.6005 185.168 95.0466 184.919 94.4956C184.835 94.3076 184.754 94.1182 184.676 93.9276C183.513 91.0886 183.022 87.8906 181.976 84.9536C181.726 84.2869 181.465 83.6219 181.193 82.9585L181.144 82.8426C180.406 81.0616 179.591 79.3026 178.729 77.5616C178.238 76.9634 177.857 76.2824 177.606 75.5506C177.248 74.9789 176.936 74.3793 176.675 73.7576C176.167 72.7796 175.659 71.8022 175.151 70.8256L175.197 70.8426C174.689 69.9072 174.181 68.9729 173.672 68.0396L173.334 67.4266L172.786 66.4496C171.08 63.4076 169.27 60.4276 167.391 57.4836C166.72 56.4336 165.118 54.9266 164.811 53.7476C164.8 53.7036 164.797 53.6626 164.79 53.6206C160.81 47.855 155.951 42.7487 150.39 38.4876C151.07 39.2206 152.517 41.7066 152.899 42.1986C154.069 43.7056 155.339 45.1085 156.615 46.5285C158.925 49.0537 161.093 51.7055 163.109 54.4715C166.665 59.5554 169.905 64.8538 172.809 70.3365C172.837 70.3685 172.868 70.3985 172.894 70.4315C174.379 72.2545 175.314 75.0106 176.383 77.0965C172.153 75.1445 167.475 73.8735 163.133 72.1405C158.809 70.4408 154.597 68.4664 150.525 66.2296C144.928 63.1891 139.544 59.7722 134.41 56.0026C128.558 52.3866 123.641 47.4105 119.3 42.1885C114.164 36.0095 109.458 29.7766 106.547 22.2746C105.096 18.5845 104.016 14.7589 103.325 10.8546C103.296 10.6846 103.259 10.5016 103.218 10.3106C102.536 8.97398 101.934 7.59748 101.418 6.18855C100.605 3.96055 98.6848 1.50855 102.286 0.725551" fill="#69A1AC"/>
<path d="M0.303816 90.1355C-0.483184 92.7355 0.173807 95.0145 3.27881 94.3705C4.20981 94.1775 5.17182 93.8705 6.09082 93.6085C11.2018 92.1625 16.2658 90.5735 21.4038 89.2195C31.2868 86.6195 41.3158 85.3535 51.4408 84.1855C59.3985 83.1767 67.4237 82.8019 75.4408 83.0645C85.2938 83.4995 94.9078 85.4155 104.449 87.6205C114.429 89.8412 124.24 92.7645 133.808 96.3685C144.413 100.557 154.627 105.675 164.331 111.662C188.517 126.437 210.374 144.726 229.184 165.927C231.906 168.969 234.619 172.019 237.323 175.078C239.362 177.378 241.284 179.783 243.309 182.095C244.986 184.009 246.949 182.918 245.657 180.676C244.175 178.101 241.632 175.788 239.699 173.556C237.973 171.564 236.247 169.573 234.521 167.583C232.497 165.249 230.461 162.928 228.384 160.643C218.7 149.985 208.357 139.946 197.416 130.584C189.04 123.579 180.197 117.153 170.947 111.352C160.374 104.552 149.147 97.4515 137.047 93.4235C136.914 93.2317 136.766 93.0508 136.605 92.8825C138.957 90.7595 131.741 83.6115 130.44 82.2175C127.096 78.688 123.534 75.3719 119.775 72.2885C116.74 69.7302 113.416 67.5378 109.869 65.7565C104.512 63.2187 98.817 61.4673 92.9598 60.5565C82.7026 58.6355 72.2442 58.015 61.8318 58.7095C42.9568 60.2775 24.3708 66.1195 9.38681 78.2445C5.55081 81.3495 1.74882 85.3685 0.303816 90.1355Z" fill="#C1DEE2"/>
<path d="M150.206 110.04C142.362 110.04 135.383 111.06 128.155 114.18C122.007 116.95 116.162 120.348 110.712 124.319C102.948 129.777 96.8319 136.131 92.5509 144.548C89.9929 149.577 88.1169 156.693 89.8349 162.177C91.8579 168.637 97.4139 174.025 104.735 172.887C109.259 172.187 113.407 169.187 116.845 166.365C120.878 162.994 124.302 158.955 126.966 154.424C131.401 147.071 134.008 138.759 137.775 131.075C139.563 127.428 141.291 123.756 143.432 120.29C144.415 118.516 145.702 116.929 147.232 115.599C148.092 114.917 151.72 113.736 150.332 112.204C170.673 112.471 188.693 128.104 192.598 147.463C192.962 149.263 193.246 151.086 193.546 152.901C193.735 154.047 193.659 158.274 194.683 159.001C196.941 160.616 195.992 155.71 195.895 155.001C195.644 153.175 195.378 151.351 195.095 149.53C193.678 139.579 189.009 130.377 181.816 123.357C173.414 115.279 162.078 110.04 150.206 110.04Z" fill="#89C5CC"/>
</svg>
